# Blender v2.92.0 OBJ File: 'playerDrill.blend'
# www.blender.org
mtllib playerDrill.mtl
o 平面
v -0.000000 0.457963 -0.837503
v 0.000000 0.762779 -0.596314
v 0.000000 0.932057 0.288949
v 0.000000 0.935902 -0.284100
v -0.000000 0.412093 -0.941081
v -0.000000 0.160546 -0.941081
v -0.000000 -0.932943 -0.004439
v 0.000000 0.155663 0.934275
v 0.000000 0.418455 0.934275
v 0.000000 0.465192 0.836924
v 0.000000 0.757003 0.595662
vt 0.501362 0.028456
vt 0.974392 0.580698
vt 0.922082 0.730902
vt 0.800275 0.884842
vt 0.198295 0.881925
vt 0.642599 0.972274
vt 0.353193 0.970332
vt 0.076451 0.734552
vt 0.027286 0.710949
vt 0.027286 0.578232
vt 0.974392 0.707736
vn 1.0000 -0.0000 -0.0000
usemtl マテリアル
s off
f 7/1/1 6/2/1 1/3/1
f 1/3/1 2/4/1 11/5/1
f 2/4/1 4/6/1 11/5/1
f 4/6/1 3/7/1 11/5/1
f 10/8/1 9/9/1 8/10/1
f 11/5/1 10/8/1 8/10/1
f 1/3/1 11/5/1 8/10/1
f 6/2/1 5/11/1 1/3/1
f 8/10/1 7/1/1 1/3/1
