# Blender v2.92.0 OBJ File: 'player.blend'
# www.blender.org
mtllib player.mtl
o 平面
v 0.000000 -0.097896 -0.342178
v 0.000000 -0.493139 -0.347668
v -0.000000 -0.984972 -0.001451
v 0.000000 -0.494969 -0.296432
v 0.000000 -0.207686 -0.675207
v 0.000000 -0.280879 -0.686186
v 0.000000 -0.405308 -0.486735
v 0.000000 -0.502288 -0.435500
v 0.000000 -0.542545 -0.470266
v 0.000000 -0.220495 -0.947852
v 0.000000 -0.174749 -0.971640
v 0.000000 -0.134493 -0.947852
v 0.000000 -0.021043 -0.755720
v 0.000000 0.075938 -0.331199
v 0.000000 0.290028 -0.338519
v 0.000000 0.290028 -0.453798
v 0.000000 0.530314 -0.645729
v 0.000000 0.808180 -0.759921
v 0.000000 0.928081 -0.770388
v 0.000000 0.980418 -0.705680
v 0.000000 0.940452 -0.625746
v 0.000000 0.811035 -0.618133
v 0.000000 0.487492 -0.384041
v 0.000000 0.544150 -0.332114
v 0.000000 0.738184 -0.138079
v 0.000000 0.746406 0.128306
v 0.000000 0.570460 0.297675
v -0.000000 0.499753 0.371671
v -0.000000 0.820402 0.616680
v -0.000000 0.935507 0.621613
v -0.000000 0.979905 0.708764
v -0.000000 0.922352 0.772894
v -0.000000 0.817113 0.758095
v -0.000000 0.540861 0.642990
v -0.000000 0.289275 0.434157
v -0.000000 0.281053 0.330562
v -0.000000 0.078797 0.342073
v -0.000000 -0.021509 0.746584
v -0.000000 -0.118525 0.919242
v -0.000000 -0.166212 0.958706
v -0.000000 -0.217187 0.935685
v -0.000000 -0.534548 0.511441
v -0.000000 -0.480284 0.452244
v -0.000000 -0.430953 0.475265
v -0.000000 -0.276384 0.690676
v -0.000000 -0.194166 0.685743
v -0.000000 -0.080705 0.342073
v -0.000000 -0.491794 0.342073
v -0.000000 -0.500016 0.294386
vt 0.163358 0.405705
vt 0.160948 0.365536
vt 0.041245 0.394458
vt 0.665564 0.452739
vt 0.668246 0.259637
vt 0.643215 0.258743
vt 0.499097 0.019345
vt 0.354561 0.256277
vt 0.331263 0.260294
vt 0.331263 0.461138
vt 0.711158 0.255167
vt 0.736190 0.302548
vt 0.728144 0.235499
vt 0.833635 0.363340
vt 0.961475 0.392842
vt 0.961475 0.434859
vt 0.973097 0.415191
vt 0.660200 0.537668
vt 0.867606 0.490286
vt 0.828271 0.399099
vt 0.813869 0.759660
vt 0.720098 0.642265
vt 0.686017 0.738739
vt 0.663776 0.642265
vt 0.869659 0.895416
vt 0.800386 0.896811
vt 0.874773 0.953995
vt 0.804105 0.960039
vt 0.843158 0.979566
vt 0.565849 0.861218
vt 0.660647 0.766420
vt 0.352954 0.779274
vt 0.435702 0.865235
vt 0.316803 0.744729
vt 0.336887 0.637880
vt 0.331263 0.539065
vt 0.152111 0.979315
vt 0.194690 0.957623
vt 0.120779 0.951196
vt 0.197100 0.901387
vt 0.128009 0.899781
vt 0.286274 0.641897
vt 0.184246 0.764813
vt 0.266190 0.290019
vt 0.248516 0.239406
vt 0.277437 0.265918
vt 0.029998 0.419362
vt 0.049279 0.442660
vt 0.133633 0.490059
vn -1.0000 0.0000 -0.0000
usemtl マテリアル
s off
f 46/1/1 45/2/1 41/3/1
f 1/4/1 2/5/1 4/6/1
f 4/6/1 3/7/1 49/8/1
f 49/8/1 48/9/1 47/10/1
f 4/6/1 49/8/1 1/4/1
f 49/8/1 47/10/1 1/4/1
f 8/11/1 7/12/1 9/13/1
f 7/12/1 6/14/1 9/13/1
f 10/15/1 9/13/1 6/14/1
f 12/16/1 11/17/1 10/15/1
f 14/18/1 13/19/1 1/4/1
f 13/19/1 12/16/1 5/20/1
f 17/21/1 16/22/1 23/23/1
f 16/22/1 15/24/1 23/23/1
f 13/19/1 5/20/1 1/4/1
f 12/16/1 10/15/1 5/20/1
f 18/25/1 17/21/1 22/26/1
f 22/26/1 17/21/1 23/23/1
f 19/27/1 18/25/1 21/28/1
f 21/28/1 20/29/1 19/27/1
f 22/26/1 21/28/1 18/25/1
f 25/30/1 24/31/1 27/32/1
f 24/31/1 23/23/1 15/24/1
f 24/31/1 15/24/1 27/32/1
f 27/32/1 26/33/1 25/30/1
f 28/34/1 27/32/1 36/35/1
f 15/24/1 14/18/1 36/35/1
f 10/15/1 6/14/1 5/20/1
f 27/32/1 15/24/1 36/35/1
f 14/18/1 1/4/1 47/10/1
f 36/35/1 14/18/1 37/36/1
f 31/37/1 30/38/1 32/39/1
f 30/38/1 29/40/1 33/41/1
f 33/41/1 32/39/1 30/38/1
f 35/42/1 34/43/1 28/34/1
f 34/43/1 33/41/1 29/40/1
f 28/34/1 34/43/1 29/40/1
f 36/35/1 35/42/1 28/34/1
f 45/2/1 44/44/1 42/45/1
f 44/44/1 43/46/1 42/45/1
f 42/45/1 41/3/1 45/2/1
f 41/3/1 40/47/1 39/48/1
f 39/48/1 38/49/1 46/1/1
f 38/49/1 37/36/1 47/10/1
f 46/1/1 38/49/1 47/10/1
f 37/36/1 14/18/1 47/10/1
f 41/3/1 39/48/1 46/1/1
